<svg width="420" height="123" viewBox="0 0 420 123" fill="none" xmlns="http://www.w3.org/2000/svg">
<path d="M287.088 105.871C287.255 103.667 286.645 101.731 285.436 99.8988C284.203 98.0332 283.587 96.0178 284.515 93.7955L284.662 93.2898C285.208 91.2874 284.958 89.4373 283.477 87.9016C282.365 86.7458 282.061 85.4199 282.386 83.8947C282.816 81.8902 282.674 80.0318 281.466 78.2346C280.419 76.675 280.238 74.9534 281.07 73.1084C281.773 71.5597 282.232 69.8872 282.677 68.239C283.023 66.9547 283.026 65.5949 282.541 64.345C282.147 63.3256 282.25 62.4001 282.494 61.3966C282.753 60.3381 282.898 59.2452 283.039 58.1628C283.149 57.3297 282.872 56.5931 282.25 56.0215C281.432 55.2723 281.149 54.3393 281.285 53.2779C281.448 52.0591 281.683 50.8537 281.047 49.6798C280.934 49.4754 280.999 49.161 281.018 48.8987C281.175 46.7813 280.64 44.8104 279.808 42.892C279.331 41.786 279.13 40.6226 279.255 39.4198C279.497 37.085 279.35 34.7552 278.944 32.4674C278.506 30.0067 277.815 27.5955 277.296 25.1478C277.115 24.3013 276.998 23.4107 277.05 22.5536C277.157 20.8056 277.367 19.0604 277.601 17.3204C277.884 15.2235 278.398 13.1901 279.303 11.2561C280.171 9.38505 280.976 7.48255 281.781 5.58255C282.07 4.89592 282.316 4.18579 282.489 3.46222C282.699 2.59218 282.689 1.71416 282.162 0.923023C281.461 -0.12791 280.538 -0.324331 279.62 0.556204C278.873 1.28187 278.165 2.11036 277.664 3.01692C276.678 4.79897 275.545 6.44966 274.179 7.95681C273.227 9.00774 272.82 10.2606 272.762 11.6913C272.655 14.4718 272.02 17.0769 270.004 19.1809C269.429 19.7811 268.926 20.4572 268.462 21.1489C267.995 21.8355 267.505 22.5456 267.239 23.3187C266.608 25.1398 265.921 26.9743 265.598 28.8664C265.17 31.3846 264.509 33.8222 263.841 36.2804C263.285 38.3218 262.335 39.999 260.904 41.4721C259.997 42.4051 259.361 43.511 258.966 44.7319C258.491 46.1942 258.077 47.6724 257.681 49.1585C257.502 49.8347 257.379 50.5343 257.314 51.2285C257.009 54.5513 256.768 57.8799 256.43 61.1947C256.348 61.9808 256.42 62.8538 255.874 63.5665L255.641 63.3625C254.77 62.1647 254.665 60.7784 254.531 59.3632C254.222 56.0454 253.883 52.7356 254.017 49.3944C254.056 48.3854 254.017 47.374 254.048 46.365C254.074 45.5394 253.728 44.9263 253.104 44.4335C252.866 44.2476 252.619 44.0747 252.343 43.8699C252.393 43.2487 252.443 42.638 252.491 42.0303C252.603 40.5471 252.401 39.1688 251.441 37.9239C251.098 37.4837 250.948 36.7866 250.954 36.2099C250.966 34.7216 251.106 33.2304 251.224 31.7443C251.316 30.5124 250.872 29.5114 250.012 28.6653C249.792 28.453 249.506 28.28 249.349 28.0312C249.103 27.6433 248.746 27.1951 248.769 26.7918C248.845 25.353 248.971 23.9038 249.252 22.494C249.472 21.3827 249.978 20.3317 250.295 19.2363C250.867 17.2549 251.465 15.2819 251.916 13.2719C252.147 12.2445 251.635 11.5264 250.77 11.1365C249.941 10.7562 249.248 10.8477 248.585 11.7522C247.444 13.3038 246.377 14.9205 245.407 16.5792C244.979 17.3153 244.803 18.2168 244.612 19.0663C244.294 20.492 243.954 21.9098 242.889 22.9893C241.737 24.1581 241.108 25.5809 240.699 27.1351C240.634 27.3919 240.502 27.6329 240.35 28.0051C239.632 26.1551 239.338 25.9742 237.78 26.346C237.725 26.0946 237.704 25.8298 237.607 25.5965C237.175 24.551 236.351 24.3886 235.575 25.2242C235.25 25.5704 234.919 25.9683 234.759 26.4061C234.158 28.0547 233.553 29.7058 233.083 31.3904C232.617 33.0806 232.381 34.8341 231.927 36.5268C230.925 40.2533 230.188 44.0583 228.58 47.6069C228.384 48.0392 228.31 48.5319 228.221 49.0037C227.755 51.5433 227.826 54.0695 228.363 56.5931C229.005 59.5961 228.943 62.615 228.473 65.6343C228.174 67.5864 227.029 69.0931 225.793 70.5373C223.837 72.8196 222.982 75.4453 223.226 78.4512C223.343 79.9134 223.653 81.3031 224.243 82.6474C225.267 84.9688 225.644 87.3455 224.718 89.8067C224.563 90.2159 224.451 90.6511 224.398 91.083C224.259 92.1734 224.217 93.2428 224.713 94.3092C224.994 94.9199 225.119 95.6535 225.124 96.3347C225.143 99.0158 225.08 101.694 225.074 104.375C225.072 104.849 225.161 105.337 225.29 105.796C225.471 106.461 225.858 107.006 226.57 107.171C227.34 107.349 227.813 106.846 228.211 106.304C228.924 105.332 229.428 104.257 229.549 103.049C229.769 100.876 230.483 98.8693 231.332 96.8799C231.715 95.9738 231.872 94.9329 231.938 93.9424C232.064 91.9979 231.636 90.1009 231.232 88.2084C231.132 87.7447 231.059 87.2385 231.14 86.7802C231.541 84.5239 232.405 82.435 234.122 80.8947C235.536 79.6184 236.123 78.1767 235.88 76.3376C235.824 75.8998 235.858 75.4491 235.766 75.0218C235.476 73.6985 235.649 72.4222 235.945 71.1169C236.349 69.3219 236.805 67.5163 236.954 65.6898C237.203 62.657 237.723 59.6909 238.436 56.7451C238.934 54.7007 238.942 52.6723 238.213 50.6518C237.505 48.6864 237.568 46.6949 238.253 44.7059C238.594 43.7125 238.782 42.6695 239.11 41.671C239.472 40.5651 239.724 39.3912 240.752 38.2668C240.836 38.904 240.951 39.3153 240.933 39.7161C240.862 41.0318 240.77 42.3447 240.639 43.6499C240.474 45.3455 240.836 46.7998 242.341 47.7932C243.01 48.2306 243.354 48.8626 243.482 49.6382C243.616 50.4168 244.007 51.1504 244.675 51.4572C246.259 52.1884 246.524 53.5482 246.671 55.0239L246.711 55.4167C247.023 58.0424 247.484 60.603 248.79 62.9823C249.318 63.9417 249.389 65.1601 249.621 66.2685C249.779 66.9946 249.713 67.7941 249.991 68.4623C250.539 69.7907 250.448 71.1094 250.309 72.4767C250.023 75.3886 250.809 77.0708 253.39 77.582C254.027 77.7075 254.384 78.0957 254.445 78.7534C254.51 79.406 254.596 80.0582 254.681 80.7109C254.901 82.4144 255.166 84.1126 256.23 85.5433C256.852 86.3794 257.646 86.862 258.735 86.6102C259.632 86.4004 260.374 85.4858 260.474 84.3724C260.568 83.3659 260.65 82.349 260.592 81.3455C260.434 78.6094 261.237 76.1542 262.54 73.7954C262.913 73.1218 263.207 72.3462 263.311 71.5857C263.5 70.1994 263.566 68.7901 263.608 67.3874C263.684 64.8562 264.14 62.4899 266.178 60.7209L266.443 60.4271C268.273 57.9219 269.309 55.2148 268.667 52.049C268.176 49.6173 268.599 47.248 269.246 44.9053C269.372 44.4465 269.561 44.0038 269.724 43.553C269.946 44.0931 269.946 44.5754 269.946 45.0572C269.949 46.5459 270.405 47.8117 271.688 48.7002C272.008 48.9227 272.278 49.2269 272.537 49.5253C273.172 50.2619 273.51 51.0925 273.232 52.078C272.975 53.008 272.716 53.936 272.432 54.861C271.882 56.6615 271.077 58.4276 270.812 60.2672C270.437 62.8773 270.565 65.5319 271.583 68.0556C271.79 68.5773 272 69.1351 272.034 69.6882C272.102 70.9595 272.139 72.2409 272.058 73.5092C271.777 77.786 272.944 81.5805 275.711 84.8672C276.429 85.7162 276.492 86.6098 276.225 87.6872C275.86 89.1649 275.617 90.6876 275.501 92.2053C275.373 93.8354 276.046 95.1142 277.672 95.7379L277.898 95.9742C277.898 96.8023 277.906 97.6799 277.893 98.5549C277.88 99.7183 278.265 100.722 279.146 101.485C279.838 102.088 280.549 102.698 281.333 103.17C282.133 103.655 282.374 104.276 282.259 105.156C282.149 105.982 282.107 106.815 282.052 107.649C282.007 108.348 282.183 108.964 282.86 109.318C283.486 109.645 283.945 109.265 284.415 108.927L284.669 108.911L284.837 109.095C285.605 109.868 286.1 109.999 286.78 109.611C287.456 109.223 287.598 108.658 287.351 107.672C287.204 107.085 287.043 106.461 287.088 105.871Z" fill="#11B0C8"/>
<path d="M77.1512 110.94C76.8942 109.313 76.2285 107.845 75.0638 106.624C73.6635 105.143 72.8084 103.432 72.6774 101.351C72.5253 98.9608 71.154 97.3856 68.9826 96.5471C68.269 96.2696 67.7629 95.8949 67.4223 95.2447C67.0158 94.4687 66.5517 93.7145 66.2136 92.9099C65.7835 91.8905 65.0334 91.2043 64.0237 90.981C62.846 90.7162 62.3269 90.001 62.0673 88.95C61.9703 88.5648 61.8392 88.1874 61.7813 87.7967C61.3856 85.2785 60.0085 83.4335 57.8476 82.1597C57.1579 81.7509 56.8144 81.1822 56.4893 80.4771C55.8282 79.0489 55.2251 77.5262 54.2494 76.3313C52.8592 74.6302 51.1103 73.3199 48.6399 74.2949L48.3278 74.2084C48.0292 73.5822 47.7587 72.8851 47.3811 72.2505C46.458 70.7123 45.8549 70.5763 44.3076 71.4674L44.0955 71.4804C43.9615 71.2025 43.8174 70.8957 43.6654 70.5893C43.1358 69.5309 42.6607 68.4375 42.058 67.421C41.5175 66.5086 40.8648 65.6809 39.5876 65.7409C39.2625 65.7565 38.924 65.4526 38.3499 65.1832C38.9925 64.737 39.3251 64.4411 39.7081 64.2527C40.9014 63.6576 41.8035 62.7925 42.2546 61.5347C42.4591 60.9685 42.8397 60.6542 43.3508 60.4968C43.9775 60.3054 44.6226 60.1354 45.2731 60.0775C47.025 59.9201 48.1867 58.8771 49.0389 57.5039C49.9175 56.0886 50.5652 54.5374 50.8382 52.8653C50.9772 52.0003 51.1292 51.2142 52.0209 50.6879C52.443 50.439 52.7055 49.7809 52.86 49.2572C53.049 48.5915 53.1305 47.8705 53.1225 47.1788C53.1095 45.9759 53.4111 44.9699 54.2763 44.0734C55.8605 42.4462 56.3087 40.4333 55.9391 38.224C55.64 36.4395 55.4515 34.6914 56.1151 32.9068C56.9042 30.7945 56.4007 28.9155 54.5938 27.4927C54.0407 27.0574 53.8357 26.5781 53.9302 25.91C53.9878 25.5192 54.0272 25.1235 54.0453 24.7281C54.1083 23.3733 54.1868 22.0185 54.1948 20.6612C54.1948 20.2889 54.0633 19.8486 53.8407 19.5523C52.2699 17.4689 51.0083 16.8322 48.7923 17.6053C48.3358 17.7652 47.8767 17.9411 47.4051 18.0141C46.6419 18.1396 46.3719 17.8937 46.2904 17.1256C46.2329 16.5594 46.2249 15.9832 46.1094 15.4275C45.8784 14.2616 45.2047 13.6954 44.006 13.6324C43.5705 13.6085 43.1223 13.6299 42.6948 13.7139C41.3705 13.9732 40.2323 13.7533 39.1571 12.8409C38.4019 12.1937 37.4683 11.7429 36.5741 11.2767C35.0188 10.4641 33.4165 9.74096 31.8718 8.90995C30.9175 8.3912 29.9288 8.11839 28.8557 8.07936C28.3312 8.05838 27.791 8.13182 27.277 8.03991C25.5726 7.73353 24.1954 8.35469 22.8896 9.37414C21.4343 10.509 19.9526 11.6145 18.4313 12.6604C16.433 14.0362 14.2695 14.7253 11.8331 13.9472L11.319 13.8423C10.3278 13.5304 9.43322 13.7873 8.5235 14.2116C7.05769 14.8983 5.83801 15.8783 4.79683 17.0916C4.18573 17.8072 3.56413 18.0796 2.61996 17.6473C1.7808 17.2671 1.2957 17.4244 0.89712 18.0825C-0.0571219 19.6577 -0.673683 22.2598 1.3062 24.1359C1.62624 24.4372 1.94628 24.739 2.2848 25.0189C3.65653 26.1538 3.84217 27.5791 3.33607 29.1908C3.11598 29.9009 2.87196 30.614 2.74092 31.3422C2.20836 34.3426 2.4423 37.1311 5.00179 39.2724C5.53645 39.7182 5.99299 40.2764 6.42055 40.8316C7.18621 41.8251 7.76329 42.881 7.41469 44.2308C7.15219 45.2473 7.03963 46.3008 6.78259 47.3152C6.56461 48.1722 6.56461 48.9449 7.07113 49.7104C7.25215 49.9828 7.38067 50.3731 7.34917 50.6879C7.26559 51.5105 7.44115 52.2522 7.79522 52.9808C8.17574 53.7589 8.20682 54.5324 7.9607 55.397C7.55665 56.8068 7.71163 58.18 8.70536 59.3669C9.12998 59.8727 9.51302 60.4074 9.93764 60.9131C10.5697 61.6627 10.8818 62.4568 10.5853 63.4632C10.2497 64.6006 10.4253 65.6855 10.9393 66.778C12.0305 69.1023 12.7386 71.566 12.7491 74.1421C12.7516 75.6023 12.8907 77.1296 12.015 78.4848C11.2753 79.6251 11.6974 80.7751 12.4526 81.6447C13.5018 82.8556 13.9923 84.2783 14.5165 85.7255C14.763 86.4096 14.7055 86.9917 14.3199 87.5969C13.1632 89.418 13.1002 91.373 13.5698 93.4278C13.9003 94.8716 14.5505 96.1559 15.3372 97.3718C15.8983 98.2389 16.3204 99.1354 16.4779 100.147C16.6094 101.006 16.95 101.727 17.6321 102.298C17.8471 102.479 18.0567 102.783 18.0802 103.053C18.2217 104.484 18.5628 105.894 18.1512 107.362C17.7316 108.853 18.0777 109.644 19.4389 110.454C20.3516 110.996 20.6871 111.767 20.7396 112.731C20.7791 113.475 20.7291 114.228 20.7661 114.972C20.8396 116.287 21.2407 117.475 22.2899 118.356C22.7645 118.754 23.276 119.163 23.9472 118.879C24.6314 118.597 24.9098 117.983 24.9229 117.286C24.9409 116.456 24.9019 115.617 24.8468 114.786C24.7523 113.337 24.8048 111.961 26.2946 111.143L26.4886 110.968C28.0519 109.419 28.2144 107.794 27.1287 105.87C26.3315 104.455 25.967 102.953 26.6801 101.342C26.9607 100.708 27.1946 100.008 27.2442 99.3217C27.2887 98.6506 27.2282 97.888 26.9376 97.3013C26.3735 96.1693 25.6318 95.1209 24.9312 94.057C23.8325 92.3903 23.2109 90.6901 24.3936 88.7922L24.5562 88.4334C25.6784 86.3869 25.778 84.3426 24.5091 82.3171C24.1211 81.698 24.0711 81.1037 24.5066 80.48C25.3168 79.3322 25.1568 78.1843 24.5247 77.0099C24.1496 76.3183 23.8245 75.5897 23.562 74.8506C23.0585 73.4353 23.515 72.5754 25.2013 71.9781C25.87 72.7063 26.5911 73.5319 27.3517 74.3209C28.4819 75.4894 29.8877 75.9401 31.4404 75.4978C32.6101 75.1649 33.3023 75.6497 33.8714 76.5092C34.477 77.4267 34.9911 78.4013 35.6127 79.3028C36.1083 80.018 36.6484 80.7231 37.278 81.3207C37.9362 81.9524 38.4502 81.8684 39.1084 81.2338C40.3306 80.0448 40.5927 80.0234 41.7598 81.2368C42.3999 81.9104 43.0896 82.3897 44.0547 82.2751C44.7759 82.1857 45.2349 82.4871 45.5205 83.1187C46.1316 84.476 46.7873 85.8153 47.3484 87.1911C48.0515 88.9207 49.2132 89.4659 50.889 88.7582C51.1301 88.6563 51.3665 88.5383 51.6126 88.4384C52.5593 88.0561 52.6563 88.0372 53.1994 88.9543C53.868 90.0837 54.4791 91.253 55.0403 92.4424C55.7929 94.0284 57.0307 95.0685 58.7014 95.3618C59.7187 95.5427 60.2537 96.0199 60.6628 96.8451C60.8753 97.2778 61.1324 97.692 61.3449 98.1243C62.3311 100.124 63.4483 101.99 65.7532 102.732L66.1938 103.015C67.3295 103.801 68.4022 104.615 68.4782 106.188C68.5567 107.751 69.1964 109.16 69.7789 110.586C70.1775 111.558 70.7571 112.342 71.6962 112.845C72.4594 113.256 72.9785 113.869 73.2826 114.698C73.5736 115.479 73.9252 116.241 74.2948 116.985C74.8114 118.018 75.7501 118.66 76.4087 118.487C77.0933 118.306 77.4549 117.554 77.4209 116.262C77.4078 115.696 77.1168 115.067 77.2818 114.577C77.7048 113.322 77.3402 112.135 77.1512 110.94ZM37.1398 55.0495C36.8673 55.2224 36.5208 55.2933 36.1982 55.3642C35.4821 55.5317 34.7349 55.6026 34.0398 55.8335C33.2531 56.0958 32.474 56.4257 31.7504 56.8345C31.1943 57.1518 30.6567 57.5736 30.2556 58.0633C29.6785 58.7735 28.9994 59.2662 28.0708 59.6385C27.7558 59.3741 27.4546 59.0618 27.1006 58.8234C25.5478 57.7775 24.6091 57.702 23.3688 58.632C23.0303 58.8864 22.6343 59.0568 21.9656 59.4341C22.0916 58.606 22.1256 58.0663 22.2647 57.5551C22.3932 57.0938 22.6553 56.672 22.8258 56.2213C23.3504 54.8375 23.1903 54.2583 21.9261 53.4563C21.407 53.1289 21.21 52.7512 21.2235 52.1699C21.2445 51.2919 21.2315 50.4113 21.226 49.5308C21.221 48.2335 20.7039 47.264 19.4927 46.6794C18.6795 46.2861 18.609 46.0032 18.8085 45.1017C18.9341 44.5515 19.0391 43.9853 19.1021 43.422C19.3251 41.5246 18.3759 40.2038 16.9806 39.0794C16.7421 38.888 16.4981 38.5237 16.506 38.2433C16.5375 36.899 16.089 35.5547 16.6165 34.205C16.9496 33.3479 16.4065 32.6613 15.8244 32.1081C14.9117 31.2486 14.8042 30.2056 15.0297 29.0787C15.2158 28.1302 15.6513 27.8444 16.6035 27.9753C16.863 28.0148 17.136 28.0198 17.3847 28.0933C19.546 28.7459 21.2478 27.9258 22.7531 26.4476C23.0022 26.2013 23.2643 25.9624 23.5083 25.711C24.3344 24.8565 25.3546 24.5552 26.5088 24.6761C27.2534 24.752 27.9876 24.93 28.7302 24.9694C29.6899 25.0219 30.65 24.9854 31.7197 24.9854C33.8176 28.7929 34.7173 29.2491 37.9483 28.0748C38.7245 28.8584 39.5977 29.5689 39.0286 30.9523C38.769 31.5894 39.0051 32.268 39.4587 32.7998C40.0828 33.5364 40.7069 34.2755 41.3915 34.9541C41.8556 35.4179 42.4222 35.7797 42.9547 36.1965C42.6137 36.7597 42.4512 37.0585 42.2596 37.3338C41.481 38.4582 41.326 39.2443 42.1731 40.2138C43.3428 41.5477 42.7292 42.9524 42.6607 44.3546L42.4957 44.7005C41.662 45.6389 40.8119 46.569 39.9807 47.5099C39.1575 48.4404 38.911 49.6038 38.722 50.7752C38.6119 51.4669 38.5729 52.1724 38.4624 52.8666C38.3171 53.7652 37.937 54.5513 37.1398 55.0495Z" fill="#11B0C8"/>
<path d="M419.134 54.1715C418.517 53.873 417.928 54.0141 417.35 54.2634C415.863 54.9055 414.355 55.5107 412.91 56.2368C411.977 56.7031 410.991 57.2223 410.288 57.9614C408.088 60.2831 404.92 61.1267 402.56 63.1791L402.324 63.2941C400.21 64.1457 398.135 65.1231 395.967 65.8073C394.076 66.4024 392.133 66.7608 390.858 68.5693C390.827 68.098 390.868 67.7152 390.999 67.3639C391.388 66.329 391.209 65.375 390.646 64.473C390.229 63.8024 389.754 63.1657 389.34 62.492C389.14 62.1697 388.893 61.7924 388.899 61.4461C388.92 60.5841 388.537 59.9579 388.055 59.2973C387.745 58.865 387.491 58.2807 387.475 57.7591C387.394 55.0415 387.407 52.3235 387.354 49.6089C387.328 48.2411 386.738 47.1792 385.537 46.451C385.188 46.2387 384.797 45.8718 384.695 45.505C383.966 42.85 382.366 40.4678 382.246 37.6247C382.23 37.3234 382.141 37.014 382.033 36.7312C381.168 34.4774 380.336 32.2105 379.395 29.9912C379.007 29.0737 378.404 28.2326 377.813 27.4176C377.588 27.1133 377.032 26.7494 376.775 26.8409C376.398 26.9693 375.978 27.4515 375.902 27.8448C375.766 28.5604 375.847 29.3201 375.875 30.0646C375.949 32.3369 376.041 34.6142 376.129 36.9255C374.697 37.2453 374.351 38.1993 374.432 39.3417C374.543 40.8698 374.721 42.3896 374.894 43.9093C374.994 44.7794 375.217 45.6393 375.243 46.5089C375.291 48.2201 375.262 49.9367 375.233 51.6478C375.201 53.5662 375.513 55.4217 376.34 57.1513C377.027 58.6027 377.454 60.1018 377.525 61.7005C377.564 62.5315 377.609 63.3675 377.583 64.1985C377.559 65.0212 377.858 65.6683 378.49 66.1485C378.931 66.4813 379.434 66.7298 380.166 67.1705C379.594 69.2429 379.067 71.3687 378.417 73.4597C377.795 75.4671 376.953 77.3931 377.528 79.6054C377.79 80.6039 377.388 81.0131 376.392 81.356C375.771 81.5713 375.12 81.7102 374.507 81.9482C372.915 82.5689 371.294 83.138 369.762 83.8931C368.443 84.5457 368.367 85.3813 369.3 86.5317L369.502 86.8226L369.35 87.0689C369.054 87.2524 368.75 87.4278 368.438 87.5877C366.447 88.6176 364.84 90.1009 363.421 91.799C362.459 92.9519 362.443 93.7279 363.224 94.9044C364.134 96.2696 364.113 96.7259 362.91 97.8129C361.446 99.1392 359.946 100.426 358.441 101.702C357.759 102.281 357.182 102.903 356.867 103.768C356.762 104.058 356.508 104.407 356.238 104.504C354.643 105.083 353.647 106.265 352.87 107.688C352.18 108.956 351.258 109.989 349.967 110.657C349.27 111.016 348.509 111.26 347.825 111.643C344.764 113.354 342.252 115.765 339.75 118.165C339.175 118.716 338.837 119.547 338.504 120.299C338.155 121.077 337.988 121.91 338.795 122.579C339.474 123.139 340.284 123.142 341.247 122.576L341.785 122.199C343.567 120.703 345.322 119.175 347.134 117.715C347.806 117.172 348.561 116.643 349.366 116.376C350.939 115.852 352.568 115.477 354.193 115.113C355.951 114.714 357.48 113.996 358.754 112.659C360.448 110.877 362.242 109.19 364.002 107.468C364.282 107.196 364.584 106.92 364.917 106.721C366.055 106.035 366.886 105.06 367.364 103.862C368.208 101.734 369.614 100.005 371.07 98.2985C371.723 97.5304 372.446 96.8153 373.054 96.0103C373.44 95.502 373.794 94.9077 373.947 94.2937C374.429 92.3962 375.514 91.0078 377.13 89.9489C379.37 88.4762 381.567 86.9535 383.796 85.4627C384.772 84.8126 385.485 83.961 386.015 82.9126C386.348 82.255 386.773 81.6263 387.245 81.0576C388.601 79.4195 390.34 78.408 392.393 77.8049C395.687 76.8379 398.029 74.6735 399.51 71.6046C399.899 70.803 400.488 70.2603 401.202 69.8255C401.684 69.5267 402.211 69.2853 402.744 69.0864C404.291 68.5043 405.608 67.5847 406.845 66.5023C407.57 65.8681 408.335 65.2419 409.177 64.7937C411.726 63.4469 413.976 61.7013 416.061 59.7359C417.276 58.5934 418.435 57.3855 419.565 56.1613C420.29 55.3823 420.083 54.6302 419.134 54.1715Z" fill="#11B0C8"/>
<path d="M204.936 77.8884C204.204 76.1378 203.553 74.3843 203.671 72.4268C203.753 71.077 203.637 69.7172 203.687 68.3649C203.727 67.272 203.769 66.1607 204.012 65.1022C204.445 63.2257 205.014 61.3756 205.557 59.5252C205.812 58.6631 205.757 57.8455 205.195 57.1538C204.398 56.1659 204.312 55.06 204.582 53.9175C204.918 52.5128 205.369 51.132 205.741 49.7348C205.875 49.2345 206.027 48.7078 206.001 48.1991C205.961 47.332 205.618 46.5295 204.758 46.1761C203.839 45.7959 203.019 46.1497 202.389 46.8548C201.957 47.34 201.506 47.8717 201.272 48.4669C200.857 49.5203 200.561 50.6287 200.288 51.7321C199.756 53.894 199.273 56.0719 198.768 58.2392L198.592 58.7344C197.559 60.3276 197.2 62.1202 196.958 63.9627C196.835 64.9188 196.329 65.5483 195.429 66.0801C194.129 66.8536 192.917 67.8361 191.834 68.8971C190.806 69.9015 189.982 71.1144 189.075 72.2388C189.101 71.4711 189.06 70.6922 189.193 69.9485C189.66 67.3644 190.2 64.7908 190.701 62.2071C190.95 60.9177 191.221 59.623 191.383 58.3206C191.464 57.642 191.454 56.8978 191.26 56.2506C191.019 55.4511 190.531 54.7095 189.547 54.6495C188.611 54.5865 187.971 55.0973 187.52 55.8708C187.368 56.1357 187.234 56.416 187.118 56.6989C185.965 59.5583 184.818 62.4198 183.591 65.4732C183.182 63.6072 182.419 62.252 180.324 62.7321C179.589 61.5133 179.408 60.2475 179.159 59.0081C178.96 58.0252 178.491 57.2076 177.806 56.4924C177.277 55.9392 176.605 55.9392 175.97 56.1726C175.323 56.4139 174.887 56.8777 174.887 57.6638C174.887 58.3164 174.785 58.9686 174.738 59.6238C174.659 60.7112 174.528 61.8016 174.523 62.8891C174.52 64.0265 174.588 65.1718 174.719 66.3038C174.916 67.9969 173.88 69.1082 172.993 70.4555C172.556 69.564 172.118 68.8463 171.84 68.0678C171.651 67.5465 171.735 66.9363 171.614 66.3831C171.423 65.5286 171.134 64.6976 170.94 63.8435C170.72 62.866 170.541 61.878 170.373 60.8951C170.292 60.4183 170.316 59.9285 170.229 59.4563C169.81 57.1765 169.157 54.9387 169.149 52.5879C169.146 51.8539 169.041 51.0967 168.853 50.3866C168.637 49.5875 168.042 49.1652 167.433 49.3042C166.655 49.4851 165.873 49.7469 165.453 50.4936C165.029 51.2537 164.633 52.0423 164.334 52.8599C164.019 53.7224 163.833 54.6314 163.597 55.5225C163.435 56.1461 163.086 56.5314 162.393 56.4974C161.127 56.4399 160.489 57.2336 160.038 58.253C159.721 58.9766 159.496 59.7417 159.128 60.4389C158.161 62.2914 157.917 64.1759 158.717 66.1493C158.989 66.8225 159.052 67.5092 158.798 68.2012C157.925 70.5831 157.505 73.1357 156.089 75.319C155.809 75.7513 155.562 76.275 155.52 76.7787C155.447 77.6303 155.247 78.6867 155.638 79.3259C156.344 80.4607 156.478 81.5876 156.443 82.8245C156.433 83.0839 156.47 83.3563 156.53 83.6081C156.735 84.4152 157.369 84.9914 158.064 85.0284C158.83 85.0649 159.302 84.672 159.588 83.6811C159.8 82.958 160.054 82.2898 160.618 81.7396C161.274 81.0945 161.413 80.2454 161.091 79.4148C160.831 78.7337 161.028 78.2279 161.403 77.7088C161.686 77.3184 162.024 76.9545 162.247 76.5353C162.462 76.124 162.69 75.6543 162.688 75.2115C162.675 73.7338 163.469 72.6803 164.324 71.5349C164.623 71.7628 164.802 71.9807 165.03 72.0617C166.076 72.4205 166.448 73.288 166.74 74.2236C167.151 75.5653 167.469 76.9415 167.983 78.2409C168.685 80.031 169.53 81.7635 170.327 83.5191L170.652 83.93C171.088 84.3912 171.599 84.5167 172.21 84.3098C173.015 84.045 173.498 83.4973 173.503 82.6692C173.508 80.9191 173.448 79.1655 173.401 77.4129C173.374 76.4324 173.309 75.4495 173.257 74.3176C174.182 74.8107 174.547 75.3714 174.468 76.215C174.431 76.6058 174.5 77.0116 174.439 77.3969C174.201 78.9112 175.187 79.7422 176.178 80.5627C176.558 80.8746 177.03 80.88 177.392 80.5443C178.332 79.6692 179.252 78.7727 179.071 77.2974C179.021 76.9151 179.011 76.4983 179.105 76.1286C179.47 74.7108 179.336 73.348 178.783 72.0113C178.599 71.571 178.518 71.1492 178.793 70.612C179.433 71.1941 180.099 71.605 180.49 72.2002C181.411 73.5839 182.223 75.0411 183.026 76.4979C183.661 77.6483 184.198 78.8487 184.814 80.0096C185.137 80.6148 185.614 81.0941 186.375 81.0236C187.146 80.9501 187.662 80.5363 187.877 79.7552C188.011 79.2654 188.208 78.7937 188.402 78.2409L188.572 78.4294L188.625 78.8172C188.732 80.6097 189.705 81.7131 191.349 82.3188C191.924 82.5282 192.485 82.78 193.015 83.0763C195.165 84.2788 197.601 83.8305 199.136 81.9255C199.377 81.6271 199.605 81.3178 199.946 80.875C200.091 81.5406 200.206 82.0464 200.303 82.5521C200.555 83.8024 201.166 84.8529 202.078 85.7204C202.939 86.538 204.111 86.5985 205.097 85.9303C205.965 85.3406 206.424 84.5805 206.332 83.488C206.165 81.539 205.683 79.6834 204.936 77.8884ZM163.028 66.1531C163.791 64.1222 164.51 62.2196 165.225 60.3142L165.566 60.4007C165.566 61.4017 165.422 62.4291 165.606 63.3961C165.779 64.2867 166.306 65.1127 166.755 66.1527L163.028 66.1531ZM197.335 76.0853C196.892 76.4522 196.559 76.9529 196.14 77.3566C195.421 78.0533 194.521 77.9299 194.38 77.0104C194.246 76.1588 194.477 75.2388 194.618 74.3608C194.757 73.5008 195.114 72.8851 196.064 72.5053C196.911 72.1595 197.579 71.3759 198.558 70.6103C198.778 72.7286 199.124 74.5992 197.335 76.0853Z" fill="#11B0C8"/>
<path d="M142.861 37.3418C141.919 37.4992 140.933 37.5777 140.06 37.929C139.011 38.3483 137.97 38.9065 137.078 39.5981C134.411 41.6685 131.804 43.8224 129.195 45.9688C128.547 46.5035 127.983 47.1612 127.047 47.0722C126.239 46.9962 125.586 47.3135 124.988 47.7928C124.028 48.5579 123.1 49.3705 122.13 50.1251C121.683 50.4714 121.201 50.7962 120.685 51.0216C119.817 51.4044 118.909 51.7002 118.007 52.0356C117.402 50.9691 117.352 49.8552 117.944 48.6998C118.186 48.2335 118.39 47.7278 118.474 47.2166C118.723 45.7124 119.061 44.2132 118.18 42.7404C117.916 42.3002 118.005 41.6425 117.957 41.0793C117.894 40.3402 118.06 39.4962 117.763 38.8779C117.265 37.848 117.448 36.949 117.776 35.9874C117.902 35.6126 118.039 35.2404 118.141 34.8605C118.595 33.1859 118.741 31.4878 118.395 29.7767C118.015 27.8792 116.381 27.287 114.828 28.4639C114.548 28.6737 114.27 28.8831 114.015 29.0745C112.457 28.6813 112.158 28.7232 111.474 29.7398C111.167 30.196 110.942 30.7672 110.876 31.3099C110.79 32.088 110.908 32.8875 110.892 33.6787C110.847 36.1318 111.06 38.6345 110.648 41.0243C110.113 44.1217 109.41 47.2195 108.256 50.1834C107.91 51.0715 107.805 52.0545 107.59 52.9925C107.388 53.8861 107.241 54.7955 106.973 55.6685C106.556 57.0468 106.021 58.3911 105.607 59.7749C105.463 60.2626 105.455 60.8258 105.518 61.34C105.623 62.1886 106.129 62.7967 106.947 63.0691C107.684 63.3155 108.222 62.9331 108.67 62.3959C109.2 61.7538 109.714 61.0986 110.257 60.4619C110.49 60.1891 110.768 59.9558 111.027 59.7044L111.339 59.8798C111.156 60.6239 110.959 61.371 110.789 62.1235C110.66 62.6738 110.487 63.232 110.479 63.7877C110.453 65.8316 110.164 67.779 109.071 69.5791C108.615 70.3342 108.355 71.3612 109.131 72.0214C109.978 72.7449 109.879 73.5336 109.724 74.3986C109.239 77.1212 108.746 79.8387 108.232 82.5538C108.143 83.0255 107.998 83.4973 107.794 83.9296C107.086 85.4157 106.844 87.0114 106.488 88.5967C106.108 90.3002 106.899 91.3801 107.909 92.452C108.52 93.1047 109.134 93.1727 109.75 92.5356C110.348 91.9199 110.967 91.1967 111.219 90.4077C111.738 88.7725 112.296 87.1688 113.031 85.6201C113.214 85.2269 113.316 84.787 113.408 84.3623C113.767 82.6881 114.106 81.0106 114.454 79.3355C114.782 77.7503 115.113 76.1672 115.488 74.3776C116.888 75.0327 117.565 74.1157 118.294 73.2456C118.456 73.0467 118.766 72.9707 119.08 72.7999C119.374 73.5806 119.523 74.2962 119.896 74.8678C120.269 75.4361 120.872 75.8579 121.362 76.3535L121.663 76.7829C122.77 78.8298 123.995 80.8481 124.157 83.2434C124.259 84.7316 125.002 85.796 126.101 86.6765C127.401 87.717 128.138 89.1213 128.464 90.678C128.915 92.8113 129.99 94.5959 131.27 96.268C131.839 97.0117 132.109 97.7638 132.208 98.6603C132.29 99.3939 132.355 100.186 132.681 100.825C133.226 101.897 133.643 102.958 133.732 104.174C133.795 105.062 134.498 105.592 135.332 105.605C136.26 105.615 136.714 105.229 136.94 104.221C136.979 104.053 136.984 103.875 137.013 103.613C138.332 103.634 138.985 103.285 139.153 102.274C139.384 100.89 139.533 99.4854 138.99 98.1151C138.731 97.4624 138.518 96.7918 138.298 96.1236C137.008 92.2027 135.768 88.2802 135.553 84.0975C135.497 83.1095 134.963 82.0716 134.415 81.204C133.483 79.7368 132.78 78.251 132.503 76.503C132.125 74.1388 131.157 73.3082 128.8 72.9153C127.913 72.7659 127.111 72.4931 126.552 71.7016C125.285 69.9069 123.982 68.1379 122.702 66.3583C122.521 66.1065 122.382 65.8316 122.225 65.5668C121.798 64.8592 121.399 64.1331 120.943 63.4464C120.019 62.0497 120.531 60.4065 122.115 59.7984C123.101 59.4236 124.093 59.0727 125.076 58.6954C127.876 57.6235 129.82 55.8049 130.546 52.773C130.971 51.0149 131.881 49.5233 133.717 48.8316C134.087 48.6927 134.415 48.4518 134.774 48.2893C136.607 47.4428 137.926 46.08 138.783 44.269C139.116 43.5694 139.659 43.1161 140.242 42.6233C141.479 41.5779 142.621 40.417 143.769 39.2691C144.115 38.9258 144.338 38.4801 144.06 37.9563C143.802 37.4673 143.385 37.2524 142.861 37.3418Z" fill="#11B0C8"/>
<path d="M339.318 94.3772C339.753 93.7745 339.895 93.0669 339.682 92.3702C339.339 91.2429 338.954 90.1219 338.495 89.034C337.742 87.2704 337.312 85.5198 337.621 83.5414C338.106 80.428 337.417 77.4691 335.518 74.9375C334.705 73.8555 334.408 72.8306 334.587 71.5438C334.7 70.7262 334.692 69.8851 334.209 69.1175C333.108 67.3694 332.051 65.5978 330.147 64.5419C329.481 64.175 329.505 63.386 330.16 62.9487C330.561 62.6838 331.039 62.5449 331.461 62.3091C332.224 61.8872 333.027 61.5045 333.713 60.9752C334.568 60.3146 335.476 59.8509 336.54 59.649C336.952 59.5701 337.348 59.3527 337.726 59.1487C339.011 58.457 339.853 57.3482 340.587 56.1243C341.015 55.4117 341.169 54.6646 341.08 53.8546C341.022 53.3308 341.015 52.7906 340.87 52.2903C340.666 51.5882 340.519 50.7677 340.055 50.2644C339.179 49.3079 338.615 48.1836 337.923 47.1276C337.503 46.4804 337.348 45.9797 337.803 45.2326C338.471 44.1372 338.209 43.1597 337.275 42.2792C336.242 41.3147 335.059 40.8795 333.648 41.1993C332.471 41.4637 331.38 41.1863 330.339 40.657C328.704 39.8235 327.656 39.9049 326.454 41.2572C325.235 42.633 324.16 44.1401 323.027 45.5919C322.848 45.8194 322.686 46.0607 322.479 46.349C321.794 45.7199 321.849 44.9628 321.76 44.2396C321.561 42.6305 321.399 41.0134 321.076 39.4307C320.884 38.4901 320.249 38.0809 319.512 38.0755C318.708 38.0654 317.963 38.6416 317.718 39.5486C317.619 39.91 317.661 40.3137 317.648 40.699C317.606 41.8339 317.632 42.9738 317.514 44.1032C317.291 46.2811 316.814 48.4459 316.759 50.6262C316.701 53.0189 316.35 55.3328 315.841 57.6575C315.671 58.4461 315.76 59.3031 315.812 60.1258C315.878 61.1847 316.51 61.8738 317.42 62.3741C318.553 62.9927 318.823 63.7608 318.338 64.9893C318.068 65.6839 317.695 66.3365 317.425 67.0336C316.961 68.229 316.885 69.4599 317.527 70.6028C318.222 71.8426 318.243 73.032 317.852 74.3897C317.546 75.4587 317.42 76.6616 317.564 77.7591C317.75 79.1748 317.763 80.5531 317.592 81.9498C317.521 82.5156 317.454 83.1002 317.527 83.6555C317.587 84.0983 317.771 84.604 318.07 84.9264C319.19 86.1318 320.984 85.8459 321.621 84.2817C321.988 83.3726 322.137 82.3242 322.153 81.3388C322.18 79.8106 322.489 78.4139 323.116 77.0146C323.572 75.9976 323.737 74.8342 323.95 73.7228C324.075 73.0522 324.039 72.355 324.067 71.8598C324.379 72.0906 324.767 72.358 325.143 72.6459C326.921 74.0057 328.203 75.7693 329.297 77.6957C329.707 78.4168 330.183 79.1374 330.771 79.7111C332.03 80.9379 332.51 82.3813 332.426 84.1059C332.386 84.9289 332.392 85.8229 332.675 86.5699C333.221 88.0187 333.588 89.4915 333.881 91.0062C334.154 92.3924 334.7 93.7032 335.769 94.7037C336.894 95.7559 338.429 95.6116 339.318 94.3772ZM329.108 56.2414C328.767 56.8756 328.214 57.3922 327.705 58.0159C327.396 57.7985 327.118 57.7016 327.005 57.5077C326.496 56.6326 325.891 55.8645 325.096 55.2119C324.805 54.9735 324.799 54.3943 324.637 53.8856C326.003 53.5688 326.759 52.8452 327.22 51.6977C328.004 49.7612 328.442 49.5619 331.069 49.8107C329.139 51.1131 329.153 52.6672 329.567 54.4098C329.699 54.963 329.4 55.6941 329.108 56.2414Z" fill="#11B0C8"/>
<path d="M339.706 62.8119C338.699 63.0763 338.277 63.7763 338.476 64.7773C338.707 65.9407 339.412 66.5988 340.59 66.4939C341.618 66.4024 342.454 66.7692 343.362 67.1125C344.728 67.6313 345.772 68.9101 347.479 68.7036C347.372 69.0415 347.346 69.2694 347.238 69.4473C346.551 70.6187 346.297 71.8741 346.255 73.2234C346.234 73.837 345.932 74.4896 345.609 75.0373C345.177 75.7764 345.038 76.5151 345.261 77.3067C345.436 77.9379 345.638 78.5801 345.959 79.1462C346.339 79.8194 346.36 80.3701 346.032 81.0983C345.331 82.6709 345.143 84.3065 346.011 85.9232C346.15 86.1851 346.26 86.5099 346.247 86.7982C346.15 88.6798 346.302 90.6373 345.827 92.4197C345.164 94.8989 345.106 97.36 345.164 99.8573C345.19 101 345.426 102.143 346.14 103.086C346.824 103.987 347.676 103.911 348.245 102.939C348.377 102.716 348.447 102.454 348.526 102.202C348.911 100.95 349.292 99.6944 349.662 98.4315C349.858 97.7604 350.11 97.0927 350.194 96.4056C350.546 93.4497 350.881 90.4883 351.151 87.5243C351.3 85.8787 351.563 84.3065 352.552 82.9277C352.774 82.6163 352.974 82.2231 353.003 81.8533C353.097 80.59 353.273 79.3087 352.795 78.0714C352.575 77.5056 352.601 76.9655 352.903 76.4312C353.805 74.825 353.891 73.1055 353.671 71.3234C353.569 70.5109 353.582 69.6803 353.542 68.8602L353.863 68.6268C354.319 68.8392 354.862 68.9542 355.216 69.2795C356.724 70.6657 358.56 70.8076 360.398 70.5243C361.416 70.3648 362.179 70.5218 362.958 71.1089C363.965 71.8711 365.121 72.2648 366.388 72.3143C368.169 72.3769 368.848 71.7666 368.929 70.045C369.289 69.7856 369.669 69.5577 369.999 69.2719C370.904 68.4829 370.988 67.5083 370.141 66.6404C369.727 66.2131 369.184 65.8463 368.628 65.6369C367.896 65.3615 367.104 65.2117 366.325 65.1097C365.767 65.0367 365.347 64.8478 364.977 64.4155C364.256 63.564 363.294 63.1762 362.185 63.1577C361.354 63.1447 360.52 63.1547 359.669 63.1547C358.55 61.614 358.207 61.5041 356.122 61.7819C355.228 61.8969 354.31 62.1227 353.265 61.6665C353.478 60.9903 353.617 60.3012 353.905 59.6876C354.771 57.843 355.355 55.9111 355.717 53.9251C356.111 51.7632 356.531 49.6223 357.553 47.6459L357.632 47.3945C357.86 45.8773 357.905 44.4176 356.601 43.2722C355.563 42.3627 355.539 42.1243 356.229 40.9345C356.934 39.7186 357.703 38.5367 358.343 37.2889C358.715 36.5633 359.037 35.7532 359.121 34.9541C359.284 33.3479 358.182 32.4279 356.567 32.6848C355.122 32.9152 354.256 33.8432 353.682 35.1195C353.271 36.034 352.825 36.933 352.386 37.8421C351.264 40.1694 350.082 42.4676 349.751 45.0962C349.633 46.0372 349.271 46.9517 348.954 47.8583C348.464 49.276 348.062 50.7123 348.089 52.2245C348.104 53.2569 347.879 54.2164 347.42 55.1439C346.801 56.4017 346.636 57.7125 346.914 59.1143C347.226 60.6869 346.738 61.2451 345.17 61.2527C344.315 61.2552 343.494 61.3337 342.812 61.9078C342.212 62.4136 341.514 62.602 340.748 62.6469C340.399 62.6675 340.044 62.7229 339.706 62.8119Z" fill="#11B0C8"/>
<path d="M101.116 73.8731C99.5448 75.0025 98.5192 75.0134 96.9274 73.9021C96.4578 73.5747 96.0147 73.2104 95.5401 72.8956C94.7089 72.3403 93.8383 72.1565 92.9857 72.8486C92.4691 73.2654 91.9445 73.2549 91.3934 72.972C90.4678 72.4923 89.6021 72.6761 88.7764 73.1999C88.1447 73.5957 87.5572 74.0674 86.9146 74.4397C86.0284 74.948 85.2073 74.4791 85.1942 73.4622C85.1888 73.121 85.2572 72.7542 85.3958 72.4428C85.6789 71.8035 86.0149 71.1874 86.3585 70.5793C86.7911 69.8192 87.3392 69.1095 87.6857 68.3125C88.4803 66.4784 88.1893 65.5718 86.587 64.51C86.4059 64.3895 86.2224 64.2741 85.9309 64.0852C86.159 62.3871 87.2501 61.3886 88.4039 60.4217C89.9512 59.1269 91.514 57.848 93.0037 56.4878C93.8379 55.7252 94.391 54.7716 93.8089 53.5818C94.6401 53.0576 95.4767 52.8582 96.3763 52.8662C97.1239 52.8716 97.8715 52.8742 98.6187 52.8452C100.507 52.7717 102.154 52.172 103.313 50.5943C103.804 49.9232 104.031 49.1581 103.618 48.3691C103.24 47.6434 102.589 47.3131 101.766 47.3496C100.321 47.4122 98.8737 47.4336 97.4339 47.562C96.7808 47.622 96.2537 47.6275 95.7896 47.0693C95.281 46.4586 94.5729 46.2567 93.7728 46.3067C91.7874 46.4351 89.9936 47.1007 88.4753 48.3745C88.0061 48.7678 87.5416 49.4095 87.4656 49.9887C87.2795 51.4509 86.4769 52.1325 85.1266 52.376L84.4996 52.5699C81.872 53.322 81.0039 54.3884 80.6444 57.0615C80.4974 58.1779 80.3478 59.3808 79.8342 60.3453C79.0996 61.708 78.7145 63.0838 78.6305 64.5956C78.578 65.5945 78.1899 66.4565 77.5082 67.2003C77.0336 67.7165 76.496 68.2172 76.1814 68.8283C75.7669 69.6274 75.4103 70.5054 75.2658 71.391C75.0823 72.4944 75.8034 73.2146 76.9156 73.2985C77.1151 73.3141 77.3142 73.301 77.6393 73.301C77.3532 73.7917 77.0676 74.1371 76.9311 74.5383C76.6661 75.3165 76.3566 76.1135 76.2885 76.9176C76.181 78.1755 76.7787 78.7626 78.0614 78.8621C78.6746 78.912 79.2911 78.8835 79.9073 78.8965C81.1874 78.928 81.5885 79.3498 81.3395 80.6022C81.1139 81.758 81.3445 82.7536 82.3021 83.4087C83.1858 84.0198 83.3668 84.8164 83.3878 85.7784C83.4008 86.389 83.4638 87.0127 83.6339 87.5974C83.7624 88.0372 84.03 88.4779 84.3446 88.8183C84.8847 89.4105 85.6399 89.4755 86.2195 88.9387C86.7201 88.4699 87.1661 87.8983 87.4942 87.2956C87.9948 86.3731 88.3283 85.3561 88.8184 84.4286C89.2065 83.7004 89.6601 82.9869 90.1922 82.3612C90.6563 81.813 91.2359 81.5616 92.0621 81.8735C92.5657 82.0644 93.2818 81.9389 93.8194 81.7345C94.462 81.4911 95.0731 81.0794 95.5867 80.6181C96.4809 79.8085 97.4331 79.5861 98.6158 79.7825C101.33 80.2333 103.827 78.4407 104.262 75.7311C104.353 75.1729 104.235 74.4703 103.95 73.991C103.345 72.967 102.361 72.977 101.116 73.8731Z" fill="#11B0C8"/>
<path d="M311.2 66.6639C310.237 65.503 310.001 64.392 310.649 63.0393C311.06 62.1697 311.485 61.2862 311.74 60.3637C312.372 58.0994 312.325 55.8666 311.186 53.7257C310.948 53.2775 310.835 52.7348 310.783 52.224C310.662 51.1366 310.29 50.2321 309.482 49.4385C308.055 48.0337 306.518 46.8623 304.601 46.1887C301.963 45.2662 299.514 45.573 297.473 47.4516C296.162 48.6599 295.15 50.1876 293.982 51.5529C293.621 51.9747 293.227 52.4074 292.766 52.7008C290.723 53.9981 289.131 55.6253 288.732 58.1204C288.496 59.5802 287.985 60.8456 286.996 62.0119C285.727 63.5107 285.624 65.764 286.715 67.1616C288.155 69.0088 288.415 71.0477 288.121 73.2595C288.006 74.127 287.951 75.0021 287.851 76.0589C287.964 76.8446 287.998 77.8225 288.263 78.7341C288.569 79.7926 289.414 80.3483 290.35 80.1099C291.444 79.8266 292.204 80.3323 293.03 80.849C293.689 81.2628 294.37 81.6506 295.084 81.9599C295.503 82.1437 295.799 82.3372 296.02 82.7699C296.725 84.1508 297.59 84.612 299.149 84.3111C300.344 84.0777 301.488 83.6194 302.746 83.8549C303.024 83.9073 303.381 83.7999 303.633 83.6509C304.912 82.8929 306.376 82.3032 307.394 81.2787C309.208 79.4522 310.865 77.4347 312.371 75.3383C313.27 74.0855 313.934 72.6073 313.515 70.8882C313.117 69.256 312.222 67.9037 311.2 66.6639ZM301.598 71.1241C302.249 72.4684 302.207 72.4898 302.076 73.8127C301.265 73.8916 300.413 73.973 299.655 74.041C299.023 73.061 298.464 72.183 297.896 71.3129C297.413 70.5843 296.815 70.0127 295.871 70.0576C295.179 70.0891 294.94 69.6803 294.827 69.1145C294.707 68.5139 294.607 67.9062 294.484 67.306C294.135 65.6205 294.531 64.1452 295.822 63.0028C297.083 61.886 297.589 60.6046 297.303 58.9065C297.078 57.5647 298.027 56.7652 299.167 56.207C298.971 57.051 298.756 57.8921 298.591 58.7412C298.249 60.4657 298.968 61.7286 300.361 62.6776C300.689 62.9 301.048 63.0708 301.373 63.2962C302.21 63.8724 302.38 64.3601 302.06 65.3271C301.911 65.7833 301.696 66.2207 301.512 66.6689C300.901 68.166 300.875 69.6358 301.598 71.1241Z" fill="#11B0C8"/>
<path d="M69.7663 59.3867C69.7164 57.7356 69.9999 56.1583 70.5845 54.6197C71.0175 53.4823 71.2427 52.2794 70.692 51.1555C70.0805 49.9077 69.9394 48.6608 70.1834 47.3295V46.8027C70.115 45.7938 69.6378 45.301 68.6231 45.2066C67.7184 45.1281 66.8868 45.3321 66.1212 45.8433C65.8536 46.0242 65.5 46.1946 65.1955 46.1761C63.5986 46.0792 63.0031 46.522 63.2051 48.0602C63.4201 49.7268 63.2206 51.2889 62.6385 52.8347C62.5465 53.0785 62.523 53.3459 62.468 53.6053C62.2685 54.5513 62.3995 55.3584 63.3937 55.807C64.0258 56.0924 64.1724 56.6531 64.0653 57.2378C63.9628 57.7884 63.7347 58.3202 63.5247 58.8444C63.1681 59.7409 62.7276 60.6055 62.421 61.5146C61.9199 63.0112 62.0749 64.3845 63.4227 65.422C63.9498 65.8283 64.2223 66.36 64.1934 67.0152C64.1358 68.3259 64.1329 69.6442 63.9523 70.9385C63.8317 71.8241 63.6663 72.6866 64.0598 73.5176C64.4189 74.2722 64.4769 75.0403 64.2933 75.8264C64.0703 76.7909 64.2723 77.6555 64.8074 78.455C65.2925 79.176 65.4681 79.9697 65.4445 80.8292C65.429 81.6183 65.442 82.4098 65.442 83.201H65.4055C65.4055 84.1231 65.3765 85.0481 65.4135 85.971C65.458 87.0874 65.707 88.1564 66.5147 88.9924C67.4089 89.9149 68.4765 89.8071 69.1611 88.7331C69.3417 88.4397 69.5102 88.0964 69.5463 87.7606C69.6643 86.7206 69.8428 85.6617 69.7668 84.6267C69.5908 82.1211 69.8428 79.7212 71.0541 77.472C71.2611 77.0952 71.3241 76.6414 71.4791 76.2297C72.1373 74.5161 71.9327 72.8729 71.0805 71.2823L70.9575 71.0485C70.5274 70.1944 70.5429 69.3768 71.0675 68.5488C71.4896 67.8831 71.8071 67.1465 72.2502 66.4939C73.2549 65.0291 73.1129 63.1317 71.1566 61.9867C70.0704 61.3521 69.7978 60.4976 69.7663 59.3867Z" fill="#11B0C8"/>
<path d="M64.7049 40.4552C65.7331 41.2937 66.9313 41.598 68.1611 41.1523C69.4303 40.6936 70.0414 39.6296 70.141 38.2908C70.2745 36.4932 70.5316 34.7321 70.9642 32.9736C71.4283 31.0815 70.2745 29.9097 68.1607 30.2035C68.2737 29.5694 68.3887 29.0666 68.4467 28.5554C68.6307 27.0407 67.513 25.6309 66.1863 25.7828C65.1741 25.8982 64.2324 26.2705 63.5138 27.0671C62.7112 27.9581 62.4306 29.3494 63.0892 30.3508C63.6793 31.2368 63.5062 31.9466 63.0577 32.7776C62.5986 33.6241 62.1635 34.5021 61.8829 35.4141C61.5074 36.6539 61.665 37.8644 62.6986 38.7923C63.3466 39.3702 64.0333 39.907 64.7049 40.4552Z" fill="#11B0C8"/>
<path d="M364.315 110.226V110.479H363.589V112.371H363.296V110.479H362.569V110.226" fill="#11B0C8"/>
<path d="M364.515 110.226H364.929L365.551 112.038L366.167 110.226H366.579V112.371H366.306V111.116L366.309 110.885V110.562L365.693 112.371H365.406L364.775 110.562V110.626L364.79 110.866V112.371H364.515" fill="#11B0C8"/>
</svg>
